# xmcd
#
# Track frame offsets:
#	150
#	23055
#	45975
#	71262
#	96582
#	116225
#	142025
#	164735
#	183775
#	207182
#
# Disc length: 3013 seconds
#
# Revision: 1
# Processed by: cddbd v1.4PL0 Copyright (c) Steve Scherf et al.
# Submitted via: EasyCDDAExtractor 5.0.7
#
DISCID=8c0bc30a
DTITLE=Carol Kim - Rong Reu
DYEAR=1900
DGENRE=
TTITLE0=Rong reu
TTITLE1=Trom nhin nhau
TTITLE2=Nhu giot suong khuy
TTITLE3=Tinh
TTITLE4=Bai khong ten so 3
TTITLE5=Lan dau va lan cuoi
TTITLE6=Mua ve thanh pho
TTITLE7=Nua hon thuong dau
TTITLE8=Hay khoc di em
TTITLE9=Tinh la soi to
EXTD=
EXTT0=
EXTT1=
EXTT2=
EXTT3=
EXTT4=
EXTT5=
EXTT6=
EXTT7=
EXTT8=
EXTT9=
PLAYORDER=
